<svg width="32" height="32" viewBox="0 0 32 32" fill="none" xmlns="http://www.w3.org/2000/svg">
  <!-- Coffee cup background -->
  <circle cx="16" cy="16" r="16" fill="#8B4513"/>
  
  <!-- Coffee cup (bigger and more prominent) -->
  <path d="M6 10h16v12c0 2.5-2 4.5-4.5 4.5h-7c-2.5 0-4.5-2-4.5-4.5v-12z" fill="#FFF8DC"/>

  <!-- Coffee liquid (bigger) -->
  <path d="M7 11h14v10c0 2-1.5 3.5-3.5 3.5h-7c-2 0-3.5-1.5-3.5-3.5v-10z" fill="#654321"/>

  <!-- Coffee cup handle (bigger and better positioned) -->
  <path d="M22 13v6c0 1.5 1 2.5 2.5 2.5s2.5-1 2.5-2.5v-6" stroke="#FFF8DC" stroke-width="2" fill="none"/>

  <!-- Coffee surface highlight -->
  <ellipse cx="14" cy="11" rx="7" ry="1" fill="#8B4513" opacity="0.7"/>
  
  <!-- Steam (more visible and better positioned) -->
  <path d="M10 6c0 1.5 .7 3 .7 3s.7-1.5 .7-3-.7-1.5-.7-1.5-.7 0-.7 1.5z" fill="#FFF8DC" opacity="0.9"/>
  <path d="M14 5c0 1.5 .7 3 .7 3s.7-1.5 .7-3-.7-1.5-.7-1.5-.7 0-.7 1.5z" fill="#FFF8DC" opacity="0.9"/>
  <path d="M18 6c0 1.5 .7 3 .7 3s.7-1.5 .7-3-.7-1.5-.7-1.5-.7 0-.7 1.5z" fill="#FFF8DC" opacity="0.9"/>
</svg>
